<?xml version="1.0" standalone="no"?>
<!DOCTYPE svg PUBLIC "-//W3C//DTD SVG 20010904//EN"
 "http://www.w3.org/TR/2001/REC-SVG-20010904/DTD/svg10.dtd">
<svg version="1.0" xmlns="http://www.w3.org/2000/svg"
 width="960.000000pt" height="960.000000pt" viewBox="0 0 960.000000 960.000000"
 preserveAspectRatio="xMidYMid meet">
<metadata>
Created by potrace 1.14, written by Peter Selinger 2001-2017
</metadata>
<g transform="translate(0.000000,960.000000) scale(0.100000,-0.100000)"
fill="#000000" stroke="none">
<path d="M1280 4800 l0 -4800 2244 0 2243 0 19 26 c10 14 27 35 37 47 10 12
27 36 38 54 11 18 25 33 30 33 5 0 9 5 9 11 0 10 43 69 75 105 5 6 17 22 25
34 29 43 99 135 122 160 13 13 22 26 20 28 -3 2 131 185 148 202 3 3 21 28 40
55 19 28 39 55 45 61 29 32 45 55 45 64 0 6 3 10 8 10 4 0 18 18 32 40 14 22
28 40 32 40 5 0 8 6 8 13 0 7 9 19 20 27 11 8 20 20 20 27 0 7 5 13 10 13 6 0
10 6 10 14 0 8 3 16 8 18 4 2 41 48 82 103 41 55 78 101 82 103 5 2 8 8 8 12
0 7 137 195 179 246 5 6 40 54 78 105 37 52 71 95 75 97 5 2 8 10 8 18 0 8 3
14 8 14 4 0 29 30 57 68 92 124 278 376 428 577 82 110 156 210 165 223 16 22
38 50 60 77 5 6 17 24 28 40 10 17 21 32 24 35 3 3 19 23 36 45 16 22 35 46
42 53 6 8 17 23 23 35 7 12 18 29 26 37 7 8 44 56 80 105 37 50 70 92 75 93 4
2 8 8 8 13 0 4 40 62 90 127 l90 119 0 3087 0 3086 -3520 0 -3520 0 0 -4800z"/>
</g>
</svg>
